<?xml version="1.0" ?><svg data-name="Layer 1" id="Layer_1" viewBox="0 0 64 64" xmlns="http://www.w3.org/2000/svg"><path d="M24,19a6,6,0,1,0,6,6A6,6,0,0,0,24,19Zm.4,10c-.13,0-.26,0-.4,0s-.27,0-.4,0a2,2,0,1,1,.8,0Zm3.46-3a4,4,0,0,0-7.72,0A4.09,4.09,0,0,1,20,25a4,4,0,0,1,8,0A4.09,4.09,0,0,1,27.86,26Z"/><path d="M40,19a6,6,0,1,0,6,6A6,6,0,0,0,40,19Zm.4,10c-.13,0-.26,0-.4,0s-.27,0-.4,0a2,2,0,1,1,.8,0Zm3.46-3a4,4,0,0,0-7.72,0A4.09,4.09,0,0,1,36,25a4,4,0,0,1,8,0A4.09,4.09,0,0,1,43.86,26Z"/><path d="M56.72,1.57A1,1,0,0,0,56,1a1,1,0,0,0-.89.32A45.58,45.58,0,0,1,43.8,10a24.93,24.93,0,0,0-23.6,0A45.58,45.58,0,0,1,8.92,1.33,1,1,0,0,0,8,1a1,1,0,0,0-.75.56c-2.76,5.87-.38,17.82.85,23A25,25,0,0,0,25,56v0a7,7,0,0,0,7,7,7,7,0,0,0,7-7v0A25,25,0,0,0,55.87,24.56C57.1,19.39,59.48,7.44,56.72,1.57ZM8.57,3.83a46.43,46.43,0,0,0,9.63,7.34,25.27,25.27,0,0,0-8.76,10C8.46,16.41,7.25,8.59,8.57,3.83ZM37,56a5,5,0,0,1-10,0V49.47a9,9,0,0,0,5-4.37,9,9,0,0,0,5,4.37ZM31.14,39.65,27.2,35.28a.62.62,0,0,1-.14-.72,1,1,0,0,1,1-.56h7.88a1,1,0,0,1,1,.56.62.62,0,0,1-.14.72l-3.94,4.37A1.26,1.26,0,0,1,31.14,39.65ZM39,53.89v-4A8.26,8.26,0,0,0,40,50a9,9,0,0,0,9-9H47a7,7,0,0,1-14,.81,3.1,3.1,0,0,0,1.3-.82l3.94-4.37h0a2.63,2.63,0,0,0,.48-2.87A3.06,3.06,0,0,0,35.94,32H28.06a3.06,3.06,0,0,0-2.83,1.75,2.63,2.63,0,0,0,.48,2.87L29.65,41a3.1,3.1,0,0,0,1.3.82A7,7,0,0,1,17,41H15a9,9,0,0,0,9,9,8.26,8.26,0,0,0,1-.06v4a23,23,0,1,1,14,0ZM54.56,21.22a25.27,25.27,0,0,0-8.76-10,46.43,46.43,0,0,0,9.63-7.34C56.75,8.59,55.54,16.41,54.56,21.22Z"/></svg>